{
	"asset":{
		"generator":"Khronos glTF Blender I/O v3.5.30",
		"version":"2.0"
	},
	"extensionsUsed":[
		"KHR_materials_clearcoat",
		"KHR_materials_specular",
		"KHR_materials_ior",
		"KHR_materials_emissive_strength"
	],
	"scene":0,
	"scenes":[
		{
			"name":"Scene",
			"nodes":[
				4
			]
		}
	],
	"nodes":[
		{
			"name":"mid",
			"rotation":[
				-0.7146013379096985,
				1.6504805072622628e-18,
				1.6504803004671097e-18,
				0.6995319724082947
			],
			"scale":[
				1.0000001192092896,
				1,
				1
			],
			"translation":[
				0,
				0.39747169613838196,
				-7.2290239334106445
			]
		},
		{
			"name":"right",
			"rotation":[
				-0.7146013379096985,
				0,
				0,
				0.6995319724082947
			],
			"scale":[
				1.0000001192092896,
				1,
				1
			],
			"translation":[
				-6.989148139953613,
				0.39747169613838196,
				-2.098102331161499
			]
		},
		{
			"name":"left",
			"rotation":[
				-0.7146013379096985,
				0,
				0,
				0.6995319724082947
			],
			"scale":[
				1.0000001192092896,
				1,
				1
			],
			"translation":[
				7.01688289642334,
				0.39747169613838196,
				-2.1258370876312256
			]
		},
		{
			"mesh":0,
			"name":"Cube.001",
			"skin":0
		},
		{
			"children":[
				3,
				0,
				1,
				2
			],
			"name":"DefaultShip",
			"scale":[
				0.08201441168785095,
				0.08201441168785095,
				0.08201441168785095
			]
		}
	],
	"animations":[
		{
			"channels":[
				{
					"sampler":0,
					"target":{
						"node":0,
						"path":"translation"
					}
				},
				{
					"sampler":1,
					"target":{
						"node":0,
						"path":"rotation"
					}
				},
				{
					"sampler":2,
					"target":{
						"node":0,
						"path":"scale"
					}
				},
				{
					"sampler":3,
					"target":{
						"node":1,
						"path":"translation"
					}
				},
				{
					"sampler":4,
					"target":{
						"node":1,
						"path":"rotation"
					}
				},
				{
					"sampler":5,
					"target":{
						"node":1,
						"path":"scale"
					}
				},
				{
					"sampler":6,
					"target":{
						"node":2,
						"path":"translation"
					}
				},
				{
					"sampler":7,
					"target":{
						"node":2,
						"path":"rotation"
					}
				},
				{
					"sampler":8,
					"target":{
						"node":2,
						"path":"scale"
					}
				}
			],
			"name":"appear",
			"samplers":[
				{
					"input":29,
					"interpolation":"LINEAR",
					"output":30
				},
				{
					"input":29,
					"interpolation":"LINEAR",
					"output":31
				},
				{
					"input":29,
					"interpolation":"LINEAR",
					"output":32
				},
				{
					"input":29,
					"interpolation":"LINEAR",
					"output":33
				},
				{
					"input":29,
					"interpolation":"LINEAR",
					"output":34
				},
				{
					"input":29,
					"interpolation":"LINEAR",
					"output":35
				},
				{
					"input":29,
					"interpolation":"LINEAR",
					"output":36
				},
				{
					"input":29,
					"interpolation":"LINEAR",
					"output":37
				},
				{
					"input":29,
					"interpolation":"LINEAR",
					"output":38
				}
			]
		},
		{
			"channels":[
				{
					"sampler":0,
					"target":{
						"node":0,
						"path":"translation"
					}
				},
				{
					"sampler":1,
					"target":{
						"node":0,
						"path":"rotation"
					}
				},
				{
					"sampler":2,
					"target":{
						"node":0,
						"path":"scale"
					}
				},
				{
					"sampler":3,
					"target":{
						"node":1,
						"path":"translation"
					}
				},
				{
					"sampler":4,
					"target":{
						"node":1,
						"path":"rotation"
					}
				},
				{
					"sampler":5,
					"target":{
						"node":1,
						"path":"scale"
					}
				},
				{
					"sampler":6,
					"target":{
						"node":2,
						"path":"translation"
					}
				},
				{
					"sampler":7,
					"target":{
						"node":2,
						"path":"rotation"
					}
				},
				{
					"sampler":8,
					"target":{
						"node":2,
						"path":"scale"
					}
				}
			],
			"name":"disappear",
			"samplers":[
				{
					"input":39,
					"interpolation":"LINEAR",
					"output":40
				},
				{
					"input":39,
					"interpolation":"LINEAR",
					"output":41
				},
				{
					"input":39,
					"interpolation":"LINEAR",
					"output":42
				},
				{
					"input":39,
					"interpolation":"LINEAR",
					"output":43
				},
				{
					"input":39,
					"interpolation":"LINEAR",
					"output":44
				},
				{
					"input":39,
					"interpolation":"LINEAR",
					"output":45
				},
				{
					"input":39,
					"interpolation":"LINEAR",
					"output":46
				},
				{
					"input":39,
					"interpolation":"LINEAR",
					"output":47
				},
				{
					"input":39,
					"interpolation":"LINEAR",
					"output":48
				}
			]
		},
		{
			"channels":[
				{
					"sampler":0,
					"target":{
						"node":0,
						"path":"translation"
					}
				},
				{
					"sampler":1,
					"target":{
						"node":0,
						"path":"rotation"
					}
				},
				{
					"sampler":2,
					"target":{
						"node":0,
						"path":"scale"
					}
				},
				{
					"sampler":3,
					"target":{
						"node":1,
						"path":"translation"
					}
				},
				{
					"sampler":4,
					"target":{
						"node":1,
						"path":"rotation"
					}
				},
				{
					"sampler":5,
					"target":{
						"node":1,
						"path":"scale"
					}
				},
				{
					"sampler":6,
					"target":{
						"node":2,
						"path":"translation"
					}
				},
				{
					"sampler":7,
					"target":{
						"node":2,
						"path":"rotation"
					}
				},
				{
					"sampler":8,
					"target":{
						"node":2,
						"path":"scale"
					}
				}
			],
			"name":"Idle",
			"samplers":[
				{
					"input":49,
					"interpolation":"LINEAR",
					"output":50
				},
				{
					"input":49,
					"interpolation":"LINEAR",
					"output":51
				},
				{
					"input":49,
					"interpolation":"LINEAR",
					"output":52
				},
				{
					"input":49,
					"interpolation":"LINEAR",
					"output":53
				},
				{
					"input":49,
					"interpolation":"LINEAR",
					"output":54
				},
				{
					"input":49,
					"interpolation":"LINEAR",
					"output":55
				},
				{
					"input":49,
					"interpolation":"LINEAR",
					"output":56
				},
				{
					"input":49,
					"interpolation":"LINEAR",
					"output":57
				},
				{
					"input":49,
					"interpolation":"LINEAR",
					"output":58
				}
			]
		},
		{
			"channels":[
				{
					"sampler":0,
					"target":{
						"node":0,
						"path":"translation"
					}
				},
				{
					"sampler":1,
					"target":{
						"node":0,
						"path":"rotation"
					}
				},
				{
					"sampler":2,
					"target":{
						"node":0,
						"path":"scale"
					}
				},
				{
					"sampler":3,
					"target":{
						"node":1,
						"path":"translation"
					}
				},
				{
					"sampler":4,
					"target":{
						"node":1,
						"path":"rotation"
					}
				},
				{
					"sampler":5,
					"target":{
						"node":1,
						"path":"scale"
					}
				},
				{
					"sampler":6,
					"target":{
						"node":2,
						"path":"translation"
					}
				},
				{
					"sampler":7,
					"target":{
						"node":2,
						"path":"rotation"
					}
				},
				{
					"sampler":8,
					"target":{
						"node":2,
						"path":"scale"
					}
				}
			],
			"name":"move",
			"samplers":[
				{
					"input":59,
					"interpolation":"LINEAR",
					"output":60
				},
				{
					"input":59,
					"interpolation":"LINEAR",
					"output":61
				},
				{
					"input":59,
					"interpolation":"LINEAR",
					"output":62
				},
				{
					"input":59,
					"interpolation":"LINEAR",
					"output":63
				},
				{
					"input":59,
					"interpolation":"LINEAR",
					"output":64
				},
				{
					"input":59,
					"interpolation":"LINEAR",
					"output":65
				},
				{
					"input":59,
					"interpolation":"LINEAR",
					"output":66
				},
				{
					"input":59,
					"interpolation":"LINEAR",
					"output":67
				},
				{
					"input":59,
					"interpolation":"LINEAR",
					"output":68
				}
			]
		}
	],
	"materials":[
		{
			"doubleSided":true,
			"extensions":{
				"KHR_materials_clearcoat":{
					"clearcoatFactor":1,
					"clearcoatRoughnessFactor":0.12090908735990524
				},
				"KHR_materials_specular":{
					"specularColorFactor":[
						0,
						0,
						0
					]
				},
				"KHR_materials_ior":{
					"ior":1.4500000476837158
				}
			},
			"name":"base",
			"pbrMetallicRoughness":{
				"baseColorFactor":[
					0,
					0,
					0,
					1
				],
				"roughnessFactor":0.22272726893424988
			}
		},
		{
			"doubleSided":true,
			"extensions":{
				"KHR_materials_clearcoat":{
					"clearcoatFactor":1,
					"clearcoatRoughnessFactor":0.2390909045934677
				}
			},
			"name":"detail",
			"pbrMetallicRoughness":{
				"baseColorFactor":[
					1,
					0,
					0,
					1
				],
				"roughnessFactor":0.20454545319080353
			}
		},
		{
			"doubleSided":true,
			"emissiveFactor":[
				1,
				0,
				0
			],
			"extensions":{
				"KHR_materials_emissive_strength":{
					"emissiveStrength":20.399999618530273
				},
				"KHR_materials_specular":{
					"specularColorFactor":[
						0,
						0,
						0
					]
				},
				"KHR_materials_ior":{
					"ior":1.4500000476837158
				}
			},
			"name":"glass",
			"pbrMetallicRoughness":{
				"baseColorFactor":[
					0,
					0,
					0,
					1
				],
				"metallicFactor":0
			}
		},
		{
			"doubleSided":true,
			"emissiveFactor":[
				1,
				0,
				0.11998913437128067
			],
			"extensions":{
				"KHR_materials_emissive_strength":{
					"emissiveStrength":88.69999694824219
				}
			},
			"name":"engine",
			"pbrMetallicRoughness":{
				"baseColorFactor":[
					1,
					0.005247036926448345,
					0,
					1
				],
				"metallicFactor":0,
				"roughnessFactor":0.5
			}
		}
	],
	"meshes":[
		{
			"name":"Cube.003",
			"primitives":[
				{
					"attributes":{
						"COLOR_0":0,
						"POSITION":1,
						"TEXCOORD_0":2,
						"NORMAL":3,
						"JOINTS_0":4,
						"WEIGHTS_0":5
					},
					"indices":6,
					"material":0
				},
				{
					"attributes":{
						"COLOR_0":7,
						"POSITION":8,
						"TEXCOORD_0":9,
						"NORMAL":10,
						"JOINTS_0":11,
						"WEIGHTS_0":12
					},
					"indices":13,
					"material":1
				},
				{
					"attributes":{
						"COLOR_0":14,
						"POSITION":15,
						"TEXCOORD_0":16,
						"NORMAL":17,
						"JOINTS_0":18,
						"WEIGHTS_0":19
					},
					"indices":20,
					"material":2
				},
				{
					"attributes":{
						"COLOR_0":21,
						"POSITION":22,
						"TEXCOORD_0":23,
						"NORMAL":24,
						"JOINTS_0":25,
						"WEIGHTS_0":26
					},
					"indices":27,
					"material":3
				}
			]
		}
	],
	"skins":[
		{
			"inverseBindMatrices":28,
			"joints":[
				0,
				1,
				2
			],
			"name":"DefaultShip"
		}
	],
	"accessors":[
		{
			"bufferView":0,
			"componentType":5123,
			"count":2254,
			"normalized":true,
			"type":"VEC4"
		},
		{
			"bufferView":1,
			"componentType":5126,
			"count":2254,
			"max":[
				0.65044766664505,
				0.04331151396036148,
				0.5654133558273315
			],
			"min":[
				-0.6504477262496948,
				-0.041809793561697006,
				-0.24065668880939484
			],
			"type":"VEC3"
		},
		{
			"bufferView":2,
			"componentType":5126,
			"count":2254,
			"type":"VEC2"
		},
		{
			"bufferView":3,
			"componentType":5126,
			"count":2254,
			"type":"VEC3"
		},
		{
			"bufferView":4,
			"componentType":5121,
			"count":2254,
			"type":"VEC4"
		},
		{
			"bufferView":5,
			"componentType":5126,
			"count":2254,
			"type":"VEC4"
		},
		{
			"bufferView":6,
			"componentType":5123,
			"count":5148,
			"type":"SCALAR"
		},
		{
			"bufferView":7,
			"componentType":5123,
			"count":468,
			"normalized":true,
			"type":"VEC4"
		},
		{
			"bufferView":8,
			"componentType":5126,
			"count":468,
			"max":[
				0.616661548614502,
				0.04331151396036148,
				0.5626060366630554
			],
			"min":[
				-0.616661548614502,
				-0.041809793561697006,
				-0.24065668880939484
			],
			"type":"VEC3"
		},
		{
			"bufferView":9,
			"componentType":5126,
			"count":468,
			"type":"VEC2"
		},
		{
			"bufferView":10,
			"componentType":5126,
			"count":468,
			"type":"VEC3"
		},
		{
			"bufferView":11,
			"componentType":5121,
			"count":468,
			"type":"VEC4"
		},
		{
			"bufferView":12,
			"componentType":5126,
			"count":468,
			"type":"VEC4"
		},
		{
			"bufferView":13,
			"componentType":5123,
			"count":738,
			"type":"SCALAR"
		},
		{
			"bufferView":14,
			"componentType":5123,
			"count":220,
			"normalized":true,
			"type":"VEC4"
		},
		{
			"bufferView":15,
			"componentType":5126,
			"count":220,
			"max":[
				0.6432946920394897,
				0.03664465621113777,
				0.5654133558273315
			],
			"min":[
				-0.6432946920394897,
				-0.03514295443892479,
				-0.24065668880939484
			],
			"type":"VEC3"
		},
		{
			"bufferView":16,
			"componentType":5126,
			"count":220,
			"type":"VEC2"
		},
		{
			"bufferView":17,
			"componentType":5126,
			"count":220,
			"type":"VEC3"
		},
		{
			"bufferView":18,
			"componentType":5121,
			"count":220,
			"type":"VEC4"
		},
		{
			"bufferView":19,
			"componentType":5126,
			"count":220,
			"type":"VEC4"
		},
		{
			"bufferView":20,
			"componentType":5123,
			"count":396,
			"type":"SCALAR"
		},
		{
			"bufferView":21,
			"componentType":5123,
			"count":60,
			"normalized":true,
			"type":"VEC4"
		},
		{
			"bufferView":22,
			"componentType":5126,
			"count":60,
			"max":[
				0.60173100233078,
				0.028513167053461075,
				0.5654133558273315
			],
			"min":[
				-0.6017310619354248,
				-0.027011463418602943,
				0.1013798713684082
			],
			"type":"VEC3"
		},
		{
			"bufferView":23,
			"componentType":5126,
			"count":60,
			"type":"VEC2"
		},
		{
			"bufferView":24,
			"componentType":5126,
			"count":60,
			"type":"VEC3"
		},
		{
			"bufferView":25,
			"componentType":5121,
			"count":60,
			"type":"VEC4"
		},
		{
			"bufferView":26,
			"componentType":5126,
			"count":60,
			"type":"VEC4"
		},
		{
			"bufferView":27,
			"componentType":5123,
			"count":90,
			"type":"SCALAR"
		},
		{
			"bufferView":28,
			"componentType":5126,
			"count":3,
			"type":"MAT4"
		},
		{
			"bufferView":29,
			"componentType":5126,
			"count":60,
			"max":[
				2.5
			],
			"min":[
				0.041666666666666664
			],
			"type":"SCALAR"
		},
		{
			"bufferView":30,
			"componentType":5126,
			"count":60,
			"type":"VEC3"
		},
		{
			"bufferView":31,
			"componentType":5126,
			"count":60,
			"type":"VEC4"
		},
		{
			"bufferView":32,
			"componentType":5126,
			"count":60,
			"type":"VEC3"
		},
		{
			"bufferView":33,
			"componentType":5126,
			"count":60,
			"type":"VEC3"
		},
		{
			"bufferView":34,
			"componentType":5126,
			"count":60,
			"type":"VEC4"
		},
		{
			"bufferView":35,
			"componentType":5126,
			"count":60,
			"type":"VEC3"
		},
		{
			"bufferView":36,
			"componentType":5126,
			"count":60,
			"type":"VEC3"
		},
		{
			"bufferView":37,
			"componentType":5126,
			"count":60,
			"type":"VEC4"
		},
		{
			"bufferView":38,
			"componentType":5126,
			"count":60,
			"type":"VEC3"
		},
		{
			"bufferView":39,
			"componentType":5126,
			"count":22,
			"max":[
				0.9166666666666666
			],
			"min":[
				0.041666666666666664
			],
			"type":"SCALAR"
		},
		{
			"bufferView":40,
			"componentType":5126,
			"count":22,
			"type":"VEC3"
		},
		{
			"bufferView":41,
			"componentType":5126,
			"count":22,
			"type":"VEC4"
		},
		{
			"bufferView":42,
			"componentType":5126,
			"count":22,
			"type":"VEC3"
		},
		{
			"bufferView":43,
			"componentType":5126,
			"count":22,
			"type":"VEC3"
		},
		{
			"bufferView":44,
			"componentType":5126,
			"count":22,
			"type":"VEC4"
		},
		{
			"bufferView":45,
			"componentType":5126,
			"count":22,
			"type":"VEC3"
		},
		{
			"bufferView":46,
			"componentType":5126,
			"count":22,
			"type":"VEC3"
		},
		{
			"bufferView":47,
			"componentType":5126,
			"count":22,
			"type":"VEC4"
		},
		{
			"bufferView":48,
			"componentType":5126,
			"count":22,
			"type":"VEC3"
		},
		{
			"bufferView":49,
			"componentType":5126,
			"count":721,
			"max":[
				30
			],
			"min":[
				0
			],
			"type":"SCALAR"
		},
		{
			"bufferView":50,
			"componentType":5126,
			"count":721,
			"type":"VEC3"
		},
		{
			"bufferView":51,
			"componentType":5126,
			"count":721,
			"type":"VEC4"
		},
		{
			"bufferView":52,
			"componentType":5126,
			"count":721,
			"type":"VEC3"
		},
		{
			"bufferView":53,
			"componentType":5126,
			"count":721,
			"type":"VEC3"
		},
		{
			"bufferView":54,
			"componentType":5126,
			"count":721,
			"type":"VEC4"
		},
		{
			"bufferView":55,
			"componentType":5126,
			"count":721,
			"type":"VEC3"
		},
		{
			"bufferView":56,
			"componentType":5126,
			"count":721,
			"type":"VEC3"
		},
		{
			"bufferView":57,
			"componentType":5126,
			"count":721,
			"type":"VEC4"
		},
		{
			"bufferView":58,
			"componentType":5126,
			"count":721,
			"type":"VEC3"
		},
		{
			"bufferView":59,
			"componentType":5126,
			"count":551,
			"max":[
				22.958333333333332
			],
			"min":[
				0.041666666666666664
			],
			"type":"SCALAR"
		},
		{
			"bufferView":60,
			"componentType":5126,
			"count":551,
			"type":"VEC3"
		},
		{
			"bufferView":61,
			"componentType":5126,
			"count":551,
			"type":"VEC4"
		},
		{
			"bufferView":62,
			"componentType":5126,
			"count":551,
			"type":"VEC3"
		},
		{
			"bufferView":63,
			"componentType":5126,
			"count":551,
			"type":"VEC3"
		},
		{
			"bufferView":64,
			"componentType":5126,
			"count":551,
			"type":"VEC4"
		},
		{
			"bufferView":65,
			"componentType":5126,
			"count":551,
			"type":"VEC3"
		},
		{
			"bufferView":66,
			"componentType":5126,
			"count":551,
			"type":"VEC3"
		},
		{
			"bufferView":67,
			"componentType":5126,
			"count":551,
			"type":"VEC4"
		},
		{
			"bufferView":68,
			"componentType":5126,
			"count":551,
			"type":"VEC3"
		}
	],
	"bufferViews":[
		{
			"buffer":0,
			"byteLength":18032,
			"byteOffset":0,
			"target":34962
		},
		{
			"buffer":0,
			"byteLength":27048,
			"byteOffset":18032,
			"target":34962
		},
		{
			"buffer":0,
			"byteLength":18032,
			"byteOffset":45080,
			"target":34962
		},
		{
			"buffer":0,
			"byteLength":27048,
			"byteOffset":63112,
			"target":34962
		},
		{
			"buffer":0,
			"byteLength":9016,
			"byteOffset":90160,
			"target":34962
		},
		{
			"buffer":0,
			"byteLength":36064,
			"byteOffset":99176,
			"target":34962
		},
		{
			"buffer":0,
			"byteLength":10296,
			"byteOffset":135240,
			"target":34963
		},
		{
			"buffer":0,
			"byteLength":3744,
			"byteOffset":145536,
			"target":34962
		},
		{
			"buffer":0,
			"byteLength":5616,
			"byteOffset":149280,
			"target":34962
		},
		{
			"buffer":0,
			"byteLength":3744,
			"byteOffset":154896,
			"target":34962
		},
		{
			"buffer":0,
			"byteLength":5616,
			"byteOffset":158640,
			"target":34962
		},
		{
			"buffer":0,
			"byteLength":1872,
			"byteOffset":164256,
			"target":34962
		},
		{
			"buffer":0,
			"byteLength":7488,
			"byteOffset":166128,
			"target":34962
		},
		{
			"buffer":0,
			"byteLength":1476,
			"byteOffset":173616,
			"target":34963
		},
		{
			"buffer":0,
			"byteLength":1760,
			"byteOffset":175092,
			"target":34962
		},
		{
			"buffer":0,
			"byteLength":2640,
			"byteOffset":176852,
			"target":34962
		},
		{
			"buffer":0,
			"byteLength":1760,
			"byteOffset":179492,
			"target":34962
		},
		{
			"buffer":0,
			"byteLength":2640,
			"byteOffset":181252,
			"target":34962
		},
		{
			"buffer":0,
			"byteLength":880,
			"byteOffset":183892,
			"target":34962
		},
		{
			"buffer":0,
			"byteLength":3520,
			"byteOffset":184772,
			"target":34962
		},
		{
			"buffer":0,
			"byteLength":792,
			"byteOffset":188292,
			"target":34963
		},
		{
			"buffer":0,
			"byteLength":480,
			"byteOffset":189084,
			"target":34962
		},
		{
			"buffer":0,
			"byteLength":720,
			"byteOffset":189564,
			"target":34962
		},
		{
			"buffer":0,
			"byteLength":480,
			"byteOffset":190284,
			"target":34962
		},
		{
			"buffer":0,
			"byteLength":720,
			"byteOffset":190764,
			"target":34962
		},
		{
			"buffer":0,
			"byteLength":240,
			"byteOffset":191484,
			"target":34962
		},
		{
			"buffer":0,
			"byteLength":960,
			"byteOffset":191724,
			"target":34962
		},
		{
			"buffer":0,
			"byteLength":180,
			"byteOffset":192684,
			"target":34963
		},
		{
			"buffer":0,
			"byteLength":192,
			"byteOffset":192864
		},
		{
			"buffer":0,
			"byteLength":240,
			"byteOffset":193056
		},
		{
			"buffer":0,
			"byteLength":720,
			"byteOffset":193296
		},
		{
			"buffer":0,
			"byteLength":960,
			"byteOffset":194016
		},
		{
			"buffer":0,
			"byteLength":720,
			"byteOffset":194976
		},
		{
			"buffer":0,
			"byteLength":720,
			"byteOffset":195696
		},
		{
			"buffer":0,
			"byteLength":960,
			"byteOffset":196416
		},
		{
			"buffer":0,
			"byteLength":720,
			"byteOffset":197376
		},
		{
			"buffer":0,
			"byteLength":720,
			"byteOffset":198096
		},
		{
			"buffer":0,
			"byteLength":960,
			"byteOffset":198816
		},
		{
			"buffer":0,
			"byteLength":720,
			"byteOffset":199776
		},
		{
			"buffer":0,
			"byteLength":88,
			"byteOffset":200496
		},
		{
			"buffer":0,
			"byteLength":264,
			"byteOffset":200584
		},
		{
			"buffer":0,
			"byteLength":352,
			"byteOffset":200848
		},
		{
			"buffer":0,
			"byteLength":264,
			"byteOffset":201200
		},
		{
			"buffer":0,
			"byteLength":264,
			"byteOffset":201464
		},
		{
			"buffer":0,
			"byteLength":352,
			"byteOffset":201728
		},
		{
			"buffer":0,
			"byteLength":264,
			"byteOffset":202080
		},
		{
			"buffer":0,
			"byteLength":264,
			"byteOffset":202344
		},
		{
			"buffer":0,
			"byteLength":352,
			"byteOffset":202608
		},
		{
			"buffer":0,
			"byteLength":264,
			"byteOffset":202960
		},
		{
			"buffer":0,
			"byteLength":2884,
			"byteOffset":203224
		},
		{
			"buffer":0,
			"byteLength":8652,
			"byteOffset":206108
		},
		{
			"buffer":0,
			"byteLength":11536,
			"byteOffset":214760
		},
		{
			"buffer":0,
			"byteLength":8652,
			"byteOffset":226296
		},
		{
			"buffer":0,
			"byteLength":8652,
			"byteOffset":234948
		},
		{
			"buffer":0,
			"byteLength":11536,
			"byteOffset":243600
		},
		{
			"buffer":0,
			"byteLength":8652,
			"byteOffset":255136
		},
		{
			"buffer":0,
			"byteLength":8652,
			"byteOffset":263788
		},
		{
			"buffer":0,
			"byteLength":11536,
			"byteOffset":272440
		},
		{
			"buffer":0,
			"byteLength":8652,
			"byteOffset":283976
		},
		{
			"buffer":0,
			"byteLength":2204,
			"byteOffset":292628
		},
		{
			"buffer":0,
			"byteLength":6612,
			"byteOffset":294832
		},
		{
			"buffer":0,
			"byteLength":8816,
			"byteOffset":301444
		},
		{
			"buffer":0,
			"byteLength":6612,
			"byteOffset":310260
		},
		{
			"buffer":0,
			"byteLength":6612,
			"byteOffset":316872
		},
		{
			"buffer":0,
			"byteLength":8816,
			"byteOffset":323484
		},
		{
			"buffer":0,
			"byteLength":6612,
			"byteOffset":332300
		},
		{
			"buffer":0,
			"byteLength":6612,
			"byteOffset":338912
		},
		{
			"buffer":0,
			"byteLength":8816,
			"byteOffset":345524
		},
		{
			"buffer":0,
			"byteLength":6612,
			"byteOffset":354340
		}
	],
	"buffers":[
		{
			"byteLength":360952,
			"uri":"data:application/octet-stream;base64,"
		}
	]
}
