{
	"asset":{
		"generator":"Khronos glTF Blender I/O v3.5.30",
		"version":"2.0"
	},
	"extensionsUsed":[
		"KHR_materials_clearcoat",
		"KHR_materials_specular",
		"KHR_materials_ior",
		"KHR_materials_emissive_strength"
	],
	"scene":0,
	"scenes":[
		{
			"name":"Scene",
			"nodes":[
				4
			]
		}
	],
	"nodes":[
		{
			"name":"mid",
			"rotation":[
				-0.7146013379096985,
				1.6504803004671097e-18,
				1.6504803004671097e-18,
				0.6995319128036499
			],
			"translation":[
				0,
				0.39747166633605957,
				-7.2290239334106445
			]
		},
		{
			"name":"right",
			"rotation":[
				-0.7146013379096985,
				0,
				0,
				0.6995319128036499
			],
			"translation":[
				-6.989147663116455,
				0.39747166633605957,
				-2.09810209274292
			]
		},
		{
			"name":"left",
			"rotation":[
				-0.7146013379096985,
				0,
				0,
				0.6995319128036499
			],
			"translation":[
				7.016882419586182,
				0.39747166633605957,
				-2.1258368492126465
			]
		},
		{
			"mesh":0,
			"name":"Cube.001",
			"skin":0
		},
		{
			"children":[
				3,
				0,
				1,
				2
			],
			"name":"DefaultShip"
		}
	],
	"animations":[
		{
			"channels":[
				{
					"sampler":0,
					"target":{
						"node":0,
						"path":"translation"
					}
				},
				{
					"sampler":1,
					"target":{
						"node":0,
						"path":"rotation"
					}
				},
				{
					"sampler":2,
					"target":{
						"node":0,
						"path":"scale"
					}
				},
				{
					"sampler":3,
					"target":{
						"node":1,
						"path":"translation"
					}
				},
				{
					"sampler":4,
					"target":{
						"node":1,
						"path":"rotation"
					}
				},
				{
					"sampler":5,
					"target":{
						"node":1,
						"path":"scale"
					}
				},
				{
					"sampler":6,
					"target":{
						"node":2,
						"path":"translation"
					}
				},
				{
					"sampler":7,
					"target":{
						"node":2,
						"path":"rotation"
					}
				},
				{
					"sampler":8,
					"target":{
						"node":2,
						"path":"scale"
					}
				}
			],
			"name":"appear",
			"samplers":[
				{
					"input":29,
					"interpolation":"LINEAR",
					"output":30
				},
				{
					"input":29,
					"interpolation":"LINEAR",
					"output":31
				},
				{
					"input":29,
					"interpolation":"LINEAR",
					"output":32
				},
				{
					"input":29,
					"interpolation":"LINEAR",
					"output":33
				},
				{
					"input":29,
					"interpolation":"LINEAR",
					"output":34
				},
				{
					"input":29,
					"interpolation":"LINEAR",
					"output":35
				},
				{
					"input":29,
					"interpolation":"LINEAR",
					"output":36
				},
				{
					"input":29,
					"interpolation":"LINEAR",
					"output":37
				},
				{
					"input":29,
					"interpolation":"LINEAR",
					"output":38
				}
			]
		},
		{
			"channels":[
				{
					"sampler":0,
					"target":{
						"node":0,
						"path":"translation"
					}
				},
				{
					"sampler":1,
					"target":{
						"node":0,
						"path":"rotation"
					}
				},
				{
					"sampler":2,
					"target":{
						"node":0,
						"path":"scale"
					}
				},
				{
					"sampler":3,
					"target":{
						"node":1,
						"path":"translation"
					}
				},
				{
					"sampler":4,
					"target":{
						"node":1,
						"path":"rotation"
					}
				},
				{
					"sampler":5,
					"target":{
						"node":1,
						"path":"scale"
					}
				},
				{
					"sampler":6,
					"target":{
						"node":2,
						"path":"translation"
					}
				},
				{
					"sampler":7,
					"target":{
						"node":2,
						"path":"rotation"
					}
				},
				{
					"sampler":8,
					"target":{
						"node":2,
						"path":"scale"
					}
				}
			],
			"name":"disappear",
			"samplers":[
				{
					"input":39,
					"interpolation":"LINEAR",
					"output":40
				},
				{
					"input":39,
					"interpolation":"LINEAR",
					"output":41
				},
				{
					"input":39,
					"interpolation":"LINEAR",
					"output":42
				},
				{
					"input":39,
					"interpolation":"LINEAR",
					"output":43
				},
				{
					"input":39,
					"interpolation":"LINEAR",
					"output":44
				},
				{
					"input":39,
					"interpolation":"LINEAR",
					"output":45
				},
				{
					"input":39,
					"interpolation":"LINEAR",
					"output":46
				},
				{
					"input":39,
					"interpolation":"LINEAR",
					"output":47
				},
				{
					"input":39,
					"interpolation":"LINEAR",
					"output":48
				}
			]
		},
		{
			"channels":[
				{
					"sampler":0,
					"target":{
						"node":0,
						"path":"translation"
					}
				},
				{
					"sampler":1,
					"target":{
						"node":0,
						"path":"rotation"
					}
				},
				{
					"sampler":2,
					"target":{
						"node":0,
						"path":"scale"
					}
				},
				{
					"sampler":3,
					"target":{
						"node":1,
						"path":"translation"
					}
				},
				{
					"sampler":4,
					"target":{
						"node":1,
						"path":"rotation"
					}
				},
				{
					"sampler":5,
					"target":{
						"node":1,
						"path":"scale"
					}
				},
				{
					"sampler":6,
					"target":{
						"node":2,
						"path":"translation"
					}
				},
				{
					"sampler":7,
					"target":{
						"node":2,
						"path":"rotation"
					}
				},
				{
					"sampler":8,
					"target":{
						"node":2,
						"path":"scale"
					}
				}
			],
			"name":"Idle",
			"samplers":[
				{
					"input":49,
					"interpolation":"LINEAR",
					"output":50
				},
				{
					"input":49,
					"interpolation":"LINEAR",
					"output":51
				},
				{
					"input":49,
					"interpolation":"LINEAR",
					"output":52
				},
				{
					"input":49,
					"interpolation":"LINEAR",
					"output":53
				},
				{
					"input":49,
					"interpolation":"LINEAR",
					"output":54
				},
				{
					"input":49,
					"interpolation":"LINEAR",
					"output":55
				},
				{
					"input":49,
					"interpolation":"LINEAR",
					"output":56
				},
				{
					"input":49,
					"interpolation":"LINEAR",
					"output":57
				},
				{
					"input":49,
					"interpolation":"LINEAR",
					"output":58
				}
			]
		},
		{
			"channels":[
				{
					"sampler":0,
					"target":{
						"node":0,
						"path":"translation"
					}
				},
				{
					"sampler":1,
					"target":{
						"node":0,
						"path":"rotation"
					}
				},
				{
					"sampler":2,
					"target":{
						"node":0,
						"path":"scale"
					}
				},
				{
					"sampler":3,
					"target":{
						"node":1,
						"path":"translation"
					}
				},
				{
					"sampler":4,
					"target":{
						"node":1,
						"path":"rotation"
					}
				},
				{
					"sampler":5,
					"target":{
						"node":1,
						"path":"scale"
					}
				},
				{
					"sampler":6,
					"target":{
						"node":2,
						"path":"translation"
					}
				},
				{
					"sampler":7,
					"target":{
						"node":2,
						"path":"rotation"
					}
				},
				{
					"sampler":8,
					"target":{
						"node":2,
						"path":"scale"
					}
				}
			],
			"name":"move",
			"samplers":[
				{
					"input":59,
					"interpolation":"LINEAR",
					"output":60
				},
				{
					"input":59,
					"interpolation":"LINEAR",
					"output":61
				},
				{
					"input":59,
					"interpolation":"LINEAR",
					"output":62
				},
				{
					"input":59,
					"interpolation":"LINEAR",
					"output":63
				},
				{
					"input":59,
					"interpolation":"LINEAR",
					"output":64
				},
				{
					"input":59,
					"interpolation":"LINEAR",
					"output":65
				},
				{
					"input":59,
					"interpolation":"LINEAR",
					"output":66
				},
				{
					"input":59,
					"interpolation":"LINEAR",
					"output":67
				},
				{
					"input":59,
					"interpolation":"LINEAR",
					"output":68
				}
			]
		}
	],
	"materials":[
		{
			"doubleSided":true,
			"extensions":{
				"KHR_materials_clearcoat":{
					"clearcoatFactor":1,
					"clearcoatRoughnessFactor":0.12090908735990524
				},
				"KHR_materials_specular":{
					"specularColorFactor":[
						0,
						0,
						0
					]
				},
				"KHR_materials_ior":{
					"ior":1.4500000476837158
				}
			},
			"name":"base",
			"pbrMetallicRoughness":{
				"baseColorFactor":[
					0,
					0,
					0,
					1
				],
				"roughnessFactor":0.22272726893424988
			}
		},
		{
			"doubleSided":true,
			"extensions":{
				"KHR_materials_clearcoat":{
					"clearcoatFactor":1,
					"clearcoatRoughnessFactor":0.2390909045934677
				}
			},
			"name":"detail",
			"pbrMetallicRoughness":{
				"baseColorFactor":[
					1,
					0,
					0,
					1
				],
				"roughnessFactor":0.20454545319080353
			}
		},
		{
			"doubleSided":true,
			"emissiveFactor":[
				1,
				0,
				0
			],
			"extensions":{
				"KHR_materials_emissive_strength":{
					"emissiveStrength":20.399999618530273
				},
				"KHR_materials_specular":{
					"specularColorFactor":[
						0,
						0,
						0
					]
				},
				"KHR_materials_ior":{
					"ior":1.4500000476837158
				}
			},
			"name":"glass",
			"pbrMetallicRoughness":{
				"baseColorFactor":[
					0,
					0,
					0,
					1
				],
				"metallicFactor":0
			}
		},
		{
			"doubleSided":true,
			"emissiveFactor":[
				1,
				0,
				0.11998913437128067
			],
			"extensions":{
				"KHR_materials_emissive_strength":{
					"emissiveStrength":88.69999694824219
				}
			},
			"name":"engine",
			"pbrMetallicRoughness":{
				"baseColorFactor":[
					1,
					0.005247036926448345,
					0,
					1
				],
				"metallicFactor":0,
				"roughnessFactor":0.5
			}
		}
	],
	"meshes":[
		{
			"name":"Cube.003",
			"primitives":[
				{
					"attributes":{
						"COLOR_0":0,
						"POSITION":1,
						"TEXCOORD_0":2,
						"NORMAL":3,
						"JOINTS_0":4,
						"WEIGHTS_0":5
					},
					"indices":6,
					"material":0
				},
				{
					"attributes":{
						"COLOR_0":7,
						"POSITION":8,
						"TEXCOORD_0":9,
						"NORMAL":10,
						"JOINTS_0":11,
						"WEIGHTS_0":12
					},
					"indices":13,
					"material":1
				},
				{
					"attributes":{
						"COLOR_0":14,
						"POSITION":15,
						"TEXCOORD_0":16,
						"NORMAL":17,
						"JOINTS_0":18,
						"WEIGHTS_0":19
					},
					"indices":20,
					"material":2
				},
				{
					"attributes":{
						"COLOR_0":21,
						"POSITION":22,
						"TEXCOORD_0":23,
						"NORMAL":24,
						"JOINTS_0":25,
						"WEIGHTS_0":26
					},
					"indices":27,
					"material":3
				}
			]
		}
	],
	"skins":[
		{
			"inverseBindMatrices":28,
			"joints":[
				0,
				1,
				2
			],
			"name":"DefaultShip"
		}
	],
	"accessors":[
		{
			"bufferView":0,
			"componentType":5123,
			"count":2232,
			"normalized":true,
			"type":"VEC4"
		},
		{
			"bufferView":1,
			"componentType":5126,
			"count":2232,
			"max":[
				9.127018928527832,
				1.2069618701934814,
				9.219131469726562
			],
			"min":[
				-9.127017974853516,
				-1.1645147800445557,
				-6.71792459487915
			],
			"type":"VEC3"
		},
		{
			"bufferView":2,
			"componentType":5126,
			"count":2232,
			"type":"VEC2"
		},
		{
			"bufferView":3,
			"componentType":5126,
			"count":2232,
			"type":"VEC3"
		},
		{
			"bufferView":4,
			"componentType":5121,
			"count":2232,
			"type":"VEC4"
		},
		{
			"bufferView":5,
			"componentType":5126,
			"count":2232,
			"type":"VEC4"
		},
		{
			"bufferView":6,
			"componentType":5123,
			"count":5148,
			"type":"SCALAR"
		},
		{
			"bufferView":7,
			"componentType":5123,
			"count":468,
			"normalized":true,
			"type":"VEC4"
		},
		{
			"bufferView":8,
			"componentType":5126,
			"count":468,
			"max":[
				8.185738563537598,
				1.2069618701934814,
				9.14091968536377
			],
			"min":[
				-8.185737609863281,
				-1.1645147800445557,
				-6.71792459487915
			],
			"type":"VEC3"
		},
		{
			"bufferView":9,
			"componentType":5126,
			"count":468,
			"type":"VEC2"
		},
		{
			"bufferView":10,
			"componentType":5126,
			"count":468,
			"type":"VEC3"
		},
		{
			"bufferView":11,
			"componentType":5121,
			"count":468,
			"type":"VEC4"
		},
		{
			"bufferView":12,
			"componentType":5126,
			"count":468,
			"type":"VEC4"
		},
		{
			"bufferView":13,
			"componentType":5123,
			"count":738,
			"type":"SCALAR"
		},
		{
			"bufferView":14,
			"componentType":5123,
			"count":216,
			"normalized":true,
			"type":"VEC4"
		},
		{
			"bufferView":15,
			"componentType":5126,
			"count":216,
			"max":[
				8.92773723602295,
				1.021223545074463,
				9.219131469726562
			],
			"min":[
				-8.92773723602295,
				-0.9787768125534058,
				-6.71792459487915
			],
			"type":"VEC3"
		},
		{
			"bufferView":16,
			"componentType":5126,
			"count":216,
			"type":"VEC2"
		},
		{
			"bufferView":17,
			"componentType":5126,
			"count":216,
			"type":"VEC3"
		},
		{
			"bufferView":18,
			"componentType":5121,
			"count":216,
			"type":"VEC4"
		},
		{
			"bufferView":19,
			"componentType":5126,
			"count":216,
			"type":"VEC4"
		},
		{
			"bufferView":20,
			"componentType":5123,
			"count":396,
			"type":"SCALAR"
		},
		{
			"bufferView":21,
			"componentType":5123,
			"count":60,
			"normalized":true,
			"type":"VEC4"
		},
		{
			"bufferView":22,
			"componentType":5126,
			"count":60,
			"max":[
				7.769775390625,
				0.7946805357933044,
				9.219131469726562
			],
			"min":[
				-7.769774436950684,
				-0.7522337436676025,
				2.811202049255371
			],
			"type":"VEC3"
		},
		{
			"bufferView":23,
			"componentType":5126,
			"count":60,
			"type":"VEC2"
		},
		{
			"bufferView":24,
			"componentType":5126,
			"count":60,
			"type":"VEC3"
		},
		{
			"bufferView":25,
			"componentType":5121,
			"count":60,
			"type":"VEC4"
		},
		{
			"bufferView":26,
			"componentType":5126,
			"count":60,
			"type":"VEC4"
		},
		{
			"bufferView":27,
			"componentType":5123,
			"count":90,
			"type":"SCALAR"
		},
		{
			"bufferView":28,
			"componentType":5126,
			"count":3,
			"type":"MAT4"
		},
		{
			"bufferView":29,
			"componentType":5126,
			"count":60,
			"max":[
				2.5
			],
			"min":[
				0.041666666666666664
			],
			"type":"SCALAR"
		},
		{
			"bufferView":30,
			"componentType":5126,
			"count":60,
			"type":"VEC3"
		},
		{
			"bufferView":31,
			"componentType":5126,
			"count":60,
			"type":"VEC4"
		},
		{
			"bufferView":32,
			"componentType":5126,
			"count":60,
			"type":"VEC3"
		},
		{
			"bufferView":33,
			"componentType":5126,
			"count":60,
			"type":"VEC3"
		},
		{
			"bufferView":34,
			"componentType":5126,
			"count":60,
			"type":"VEC4"
		},
		{
			"bufferView":35,
			"componentType":5126,
			"count":60,
			"type":"VEC3"
		},
		{
			"bufferView":36,
			"componentType":5126,
			"count":60,
			"type":"VEC3"
		},
		{
			"bufferView":37,
			"componentType":5126,
			"count":60,
			"type":"VEC4"
		},
		{
			"bufferView":38,
			"componentType":5126,
			"count":60,
			"type":"VEC3"
		},
		{
			"bufferView":39,
			"componentType":5126,
			"count":22,
			"max":[
				0.9166666666666666
			],
			"min":[
				0.041666666666666664
			],
			"type":"SCALAR"
		},
		{
			"bufferView":40,
			"componentType":5126,
			"count":22,
			"type":"VEC3"
		},
		{
			"bufferView":41,
			"componentType":5126,
			"count":22,
			"type":"VEC4"
		},
		{
			"bufferView":42,
			"componentType":5126,
			"count":22,
			"type":"VEC3"
		},
		{
			"bufferView":43,
			"componentType":5126,
			"count":22,
			"type":"VEC3"
		},
		{
			"bufferView":44,
			"componentType":5126,
			"count":22,
			"type":"VEC4"
		},
		{
			"bufferView":45,
			"componentType":5126,
			"count":22,
			"type":"VEC3"
		},
		{
			"bufferView":46,
			"componentType":5126,
			"count":22,
			"type":"VEC3"
		},
		{
			"bufferView":47,
			"componentType":5126,
			"count":22,
			"type":"VEC4"
		},
		{
			"bufferView":48,
			"componentType":5126,
			"count":22,
			"type":"VEC3"
		},
		{
			"bufferView":49,
			"componentType":5126,
			"count":721,
			"max":[
				30
			],
			"min":[
				0
			],
			"type":"SCALAR"
		},
		{
			"bufferView":50,
			"componentType":5126,
			"count":721,
			"type":"VEC3"
		},
		{
			"bufferView":51,
			"componentType":5126,
			"count":721,
			"type":"VEC4"
		},
		{
			"bufferView":52,
			"componentType":5126,
			"count":721,
			"type":"VEC3"
		},
		{
			"bufferView":53,
			"componentType":5126,
			"count":721,
			"type":"VEC3"
		},
		{
			"bufferView":54,
			"componentType":5126,
			"count":721,
			"type":"VEC4"
		},
		{
			"bufferView":55,
			"componentType":5126,
			"count":721,
			"type":"VEC3"
		},
		{
			"bufferView":56,
			"componentType":5126,
			"count":721,
			"type":"VEC3"
		},
		{
			"bufferView":57,
			"componentType":5126,
			"count":721,
			"type":"VEC4"
		},
		{
			"bufferView":58,
			"componentType":5126,
			"count":721,
			"type":"VEC3"
		},
		{
			"bufferView":59,
			"componentType":5126,
			"count":551,
			"max":[
				22.958333333333332
			],
			"min":[
				0.041666666666666664
			],
			"type":"SCALAR"
		},
		{
			"bufferView":60,
			"componentType":5126,
			"count":551,
			"type":"VEC3"
		},
		{
			"bufferView":61,
			"componentType":5126,
			"count":551,
			"type":"VEC4"
		},
		{
			"bufferView":62,
			"componentType":5126,
			"count":551,
			"type":"VEC3"
		},
		{
			"bufferView":63,
			"componentType":5126,
			"count":551,
			"type":"VEC3"
		},
		{
			"bufferView":64,
			"componentType":5126,
			"count":551,
			"type":"VEC4"
		},
		{
			"bufferView":65,
			"componentType":5126,
			"count":551,
			"type":"VEC3"
		},
		{
			"bufferView":66,
			"componentType":5126,
			"count":551,
			"type":"VEC3"
		},
		{
			"bufferView":67,
			"componentType":5126,
			"count":551,
			"type":"VEC4"
		},
		{
			"bufferView":68,
			"componentType":5126,
			"count":551,
			"type":"VEC3"
		}
	],
	"bufferViews":[
		{
			"buffer":0,
			"byteLength":17856,
			"byteOffset":0,
			"target":34962
		},
		{
			"buffer":0,
			"byteLength":26784,
			"byteOffset":17856,
			"target":34962
		},
		{
			"buffer":0,
			"byteLength":17856,
			"byteOffset":44640,
			"target":34962
		},
		{
			"buffer":0,
			"byteLength":26784,
			"byteOffset":62496,
			"target":34962
		},
		{
			"buffer":0,
			"byteLength":8928,
			"byteOffset":89280,
			"target":34962
		},
		{
			"buffer":0,
			"byteLength":35712,
			"byteOffset":98208,
			"target":34962
		},
		{
			"buffer":0,
			"byteLength":10296,
			"byteOffset":133920,
			"target":34963
		},
		{
			"buffer":0,
			"byteLength":3744,
			"byteOffset":144216,
			"target":34962
		},
		{
			"buffer":0,
			"byteLength":5616,
			"byteOffset":147960,
			"target":34962
		},
		{
			"buffer":0,
			"byteLength":3744,
			"byteOffset":153576,
			"target":34962
		},
		{
			"buffer":0,
			"byteLength":5616,
			"byteOffset":157320,
			"target":34962
		},
		{
			"buffer":0,
			"byteLength":1872,
			"byteOffset":162936,
			"target":34962
		},
		{
			"buffer":0,
			"byteLength":7488,
			"byteOffset":164808,
			"target":34962
		},
		{
			"buffer":0,
			"byteLength":1476,
			"byteOffset":172296,
			"target":34963
		},
		{
			"buffer":0,
			"byteLength":1728,
			"byteOffset":173772,
			"target":34962
		},
		{
			"buffer":0,
			"byteLength":2592,
			"byteOffset":175500,
			"target":34962
		},
		{
			"buffer":0,
			"byteLength":1728,
			"byteOffset":178092,
			"target":34962
		},
		{
			"buffer":0,
			"byteLength":2592,
			"byteOffset":179820,
			"target":34962
		},
		{
			"buffer":0,
			"byteLength":864,
			"byteOffset":182412,
			"target":34962
		},
		{
			"buffer":0,
			"byteLength":3456,
			"byteOffset":183276,
			"target":34962
		},
		{
			"buffer":0,
			"byteLength":792,
			"byteOffset":186732,
			"target":34963
		},
		{
			"buffer":0,
			"byteLength":480,
			"byteOffset":187524,
			"target":34962
		},
		{
			"buffer":0,
			"byteLength":720,
			"byteOffset":188004,
			"target":34962
		},
		{
			"buffer":0,
			"byteLength":480,
			"byteOffset":188724,
			"target":34962
		},
		{
			"buffer":0,
			"byteLength":720,
			"byteOffset":189204,
			"target":34962
		},
		{
			"buffer":0,
			"byteLength":240,
			"byteOffset":189924,
			"target":34962
		},
		{
			"buffer":0,
			"byteLength":960,
			"byteOffset":190164,
			"target":34962
		},
		{
			"buffer":0,
			"byteLength":180,
			"byteOffset":191124,
			"target":34963
		},
		{
			"buffer":0,
			"byteLength":192,
			"byteOffset":191304
		},
		{
			"buffer":0,
			"byteLength":240,
			"byteOffset":191496
		},
		{
			"buffer":0,
			"byteLength":720,
			"byteOffset":191736
		},
		{
			"buffer":0,
			"byteLength":960,
			"byteOffset":192456
		},
		{
			"buffer":0,
			"byteLength":720,
			"byteOffset":193416
		},
		{
			"buffer":0,
			"byteLength":720,
			"byteOffset":194136
		},
		{
			"buffer":0,
			"byteLength":960,
			"byteOffset":194856
		},
		{
			"buffer":0,
			"byteLength":720,
			"byteOffset":195816
		},
		{
			"buffer":0,
			"byteLength":720,
			"byteOffset":196536
		},
		{
			"buffer":0,
			"byteLength":960,
			"byteOffset":197256
		},
		{
			"buffer":0,
			"byteLength":720,
			"byteOffset":198216
		},
		{
			"buffer":0,
			"byteLength":88,
			"byteOffset":198936
		},
		{
			"buffer":0,
			"byteLength":264,
			"byteOffset":199024
		},
		{
			"buffer":0,
			"byteLength":352,
			"byteOffset":199288
		},
		{
			"buffer":0,
			"byteLength":264,
			"byteOffset":199640
		},
		{
			"buffer":0,
			"byteLength":264,
			"byteOffset":199904
		},
		{
			"buffer":0,
			"byteLength":352,
			"byteOffset":200168
		},
		{
			"buffer":0,
			"byteLength":264,
			"byteOffset":200520
		},
		{
			"buffer":0,
			"byteLength":264,
			"byteOffset":200784
		},
		{
			"buffer":0,
			"byteLength":352,
			"byteOffset":201048
		},
		{
			"buffer":0,
			"byteLength":264,
			"byteOffset":201400
		},
		{
			"buffer":0,
			"byteLength":2884,
			"byteOffset":201664
		},
		{
			"buffer":0,
			"byteLength":8652,
			"byteOffset":204548
		},
		{
			"buffer":0,
			"byteLength":11536,
			"byteOffset":213200
		},
		{
			"buffer":0,
			"byteLength":8652,
			"byteOffset":224736
		},
		{
			"buffer":0,
			"byteLength":8652,
			"byteOffset":233388
		},
		{
			"buffer":0,
			"byteLength":11536,
			"byteOffset":242040
		},
		{
			"buffer":0,
			"byteLength":8652,
			"byteOffset":253576
		},
		{
			"buffer":0,
			"byteLength":8652,
			"byteOffset":262228
		},
		{
			"buffer":0,
			"byteLength":11536,
			"byteOffset":270880
		},
		{
			"buffer":0,
			"byteLength":8652,
			"byteOffset":282416
		},
		{
			"buffer":0,
			"byteLength":2204,
			"byteOffset":291068
		},
		{
			"buffer":0,
			"byteLength":6612,
			"byteOffset":293272
		},
		{
			"buffer":0,
			"byteLength":8816,
			"byteOffset":299884
		},
		{
			"buffer":0,
			"byteLength":6612,
			"byteOffset":308700
		},
		{
			"buffer":0,
			"byteLength":6612,
			"byteOffset":315312
		},
		{
			"buffer":0,
			"byteLength":8816,
			"byteOffset":321924
		},
		{
			"buffer":0,
			"byteLength":6612,
			"byteOffset":330740
		},
		{
			"buffer":0,
			"byteLength":6612,
			"byteOffset":337352
		},
		{
			"buffer":0,
			"byteLength":8816,
			"byteOffset":343964
		},
		{
			"buffer":0,
			"byteLength":6612,
			"byteOffset":352780
		}
	],
	"buffers":[
		{
			"byteLength":359392,
			"uri":"data:application/octet-stream;base64,"
		}
	]
}
